<?xml version="1.0" encoding="UTF-8" standalone="no"?>
<!DOCTYPE svg PUBLIC "-//W3C//DTD SVG 1.1//EN"
 "http://www.w3.org/Graphics/SVG/1.1/DTD/svg11.dtd">
<!-- Generated by graphviz version 5.0.0 (20220707.1540)
 -->
<!-- Title: UmlClassDiagram Pages: 1 -->
<svg width="342pt" height="225pt"
 viewBox="0.00 0.00 342.39 224.60" xmlns="http://www.w3.org/2000/svg" xmlns:xlink="http://www.w3.org/1999/xlink">
<g id="graph0" class="graph" transform="scale(1 1) rotate(0) translate(4 220.6)">
<title>UmlClassDiagram</title>
<polygon fill="white" stroke="transparent" points="-4,4 -4,-220.6 338.39,-220.6 338.39,4 -4,4"/>
<!-- 0 -->
<g id="node1" class="node">
<title>0</title>
<polygon fill="#f2f2f2" stroke="black" points="259.67,-166.1 259.67,-207.7 334.39,-207.7 334.39,-166.1 259.67,-166.1"/>
<text text-anchor="middle" x="297.03" y="-191.1" font-family="Times,serif" font-size="14.00">Admin</text>
<text text-anchor="middle" x="297.03" y="-174.3" font-family="Times,serif" font-size="14.00">Admin.sol</text>
</g>
<!-- 2 -->
<g id="node2" class="node">
<title>2</title>
<polygon fill="#f2f2f2" stroke="black" points="0,-157.7 0,-216.1 112.06,-216.1 112.06,-157.7 0,-157.7"/>
<text text-anchor="middle" x="56.03" y="-199.5" font-family="Times,serif" font-size="14.00">&lt;&lt;Struct&gt;&gt;</text>
<text text-anchor="middle" x="56.03" y="-182.7" font-family="Times,serif" font-size="14.00">Bid</text>
<text text-anchor="middle" x="56.03" y="-165.9" font-family="Times,serif" font-size="14.00">BlindAuction.sol</text>
</g>
<!-- 1 -->
<g id="node4" class="node">
<title>1</title>
<polygon fill="#f2f2f2" stroke="black" points="130,-79.1 130,-120.7 242.06,-120.7 242.06,-79.1 130,-79.1"/>
<text text-anchor="middle" x="186.03" y="-104.1" font-family="Times,serif" font-size="14.00">BlindAuction</text>
<text text-anchor="middle" x="186.03" y="-87.3" font-family="Times,serif" font-size="14.00">BlindAuction.sol</text>
</g>
<!-- 2&#45;&gt;1 -->
<g id="edge2" class="edge">
<title>2&#45;&gt;1</title>
<path fill="none" stroke="black" d="M105.77,-157.57C120.93,-147.97 137.24,-137.29 151.21,-127.81"/>
<polygon fill="black" stroke="black" points="151.48,-127.62 154.16,-120.93 161.37,-120.83 158.69,-127.52 151.48,-127.62"/>
</g>
<!-- 3 -->
<g id="node3" class="node">
<title>3</title>
<polygon fill="#f2f2f2" stroke="black" points="130,-157.7 130,-216.1 242.06,-216.1 242.06,-157.7 130,-157.7"/>
<text text-anchor="middle" x="186.03" y="-199.5" font-family="Times,serif" font-size="14.00">&lt;&lt;Enum&gt;&gt;</text>
<text text-anchor="middle" x="186.03" y="-182.7" font-family="Times,serif" font-size="14.00">AuctionState</text>
<text text-anchor="middle" x="186.03" y="-165.9" font-family="Times,serif" font-size="14.00">BlindAuction.sol</text>
</g>
<!-- 3&#45;&gt;1 -->
<g id="edge1" class="edge">
<title>3&#45;&gt;1</title>
<path fill="none" stroke="black" d="M192.44,-157.54C192.83,-149.69 192.89,-141.12 192.6,-133.08"/>
<polygon fill="black" stroke="black" points="192.6,-133.02 188.24,-127.28 191.87,-121.04 196.23,-126.79 192.6,-133.02"/>
</g>
<!-- 1&#45;&gt;0 -->
<g id="edge5" class="edge">
<title>1&#45;&gt;0</title>
<path fill="none" stroke="black" stroke-dasharray="5,2" d="M212.05,-120.83C227.22,-132.45 246.53,-147.23 262.91,-159.77"/>
<polygon fill="black" stroke="black" points="261.1,-162.8 271.17,-166.1 265.36,-157.24 261.1,-162.8"/>
</g>
<!-- 1&#45;&gt;2 -->
<g id="edge4" class="edge">
<title>1&#45;&gt;2</title>
<path fill="none" stroke="black" d="M149.73,-120.83C134.83,-130.02 117.47,-141.2 101.74,-151.67"/>
<polygon fill="black" stroke="black" points="99.55,-148.93 93.2,-157.41 103.45,-154.74 99.55,-148.93"/>
</g>
<!-- 1&#45;&gt;3 -->
<g id="edge3" class="edge">
<title>1&#45;&gt;3</title>
<path fill="none" stroke="black" d="M180.19,-121.04C179.48,-128.96 179.18,-138.33 179.31,-147.44"/>
<polygon fill="black" stroke="black" points="175.81,-147.65 179.62,-157.54 182.81,-147.43 175.81,-147.65"/>
</g>
<!-- 4 -->
<g id="node5" class="node">
<title>4</title>
<polygon fill="#f2f2f2" stroke="black" points="108.62,-0.5 108.62,-42.1 263.44,-42.1 263.44,-0.5 108.62,-0.5"/>
<text text-anchor="middle" x="186.03" y="-25.5" font-family="Times,serif" font-size="14.00">BlindAuctionFactory</text>
<text text-anchor="middle" x="186.03" y="-8.7" font-family="Times,serif" font-size="14.00">BlindAuctionFactory.sol</text>
</g>
<!-- 4&#45;&gt;1 -->
<g id="edge6" class="edge">
<title>4&#45;&gt;1</title>
<path fill="none" stroke="black" stroke-dasharray="5,2" d="M186.03,-42.43C186.03,-50.52 186.03,-60.02 186.03,-68.9"/>
<polygon fill="black" stroke="black" points="182.53,-68.91 186.03,-78.91 189.53,-68.91 182.53,-68.91"/>
</g>
</g>
</svg>
